# xmcd
#
# Track frame offsets: 
#        150
#        10484
#        28531
#        39544
#        54156
#        64933
#        76843
#        88110
#        108749
#        119988
#        130397
#        148913
#
# Disc length: 2149 seconds
#
# Revision: 0
# Processed by: cddbd v1.5.2PL0 Copyright (c) Steve Scherf et al.
# Submitted via: ExactAudioCopyFreeDBPlugin 1.0
#
DISCID=ae08630c
DTITLE=Ralph Stanley - Like Father, Like Son
DYEAR=2000
DGENRE=Bluegrass
TTITLE0=Way Down Deep
TTITLE1=Footsteps So Near
TTITLE2=Two Flowers Blooming
TTITLE3=Breaks of the Cumberland
TTITLE4=Haunted House
TTITLE5=My Little Georgia Rose
TTITLE6=Long Gone
TTITLE7=Dirty Black Coal
TTITLE8=My Rose of Old Kentucky
TTITLE9=Wildwood Flower
TTITLE10=Sweet Memory
TTITLE11=Little Jimmy
EXTD=
EXTT0=
EXTT1=
EXTT2=
EXTT3=
EXTT4=
EXTT5=
EXTT6=
EXTT7=
EXTT8=
EXTT9=
EXTT10=
EXTT11=
PLAYORDER=
